<?xml version="1.0" encoding="UTF-8" standalone="no"?>
<svg
   xmlns:dc="http://purl.org/dc/elements/1.1/"
   xmlns:cc="http://creativecommons.org/ns#"
   xmlns:rdf="http://www.w3.org/1999/02/22-rdf-syntax-ns#"
   xmlns:svg="http://www.w3.org/2000/svg"
   xmlns="http://www.w3.org/2000/svg"
   xmlns:sodipodi="http://sodipodi.sourceforge.net/DTD/sodipodi-0.dtd"
   xmlns:inkscape="http://www.inkscape.org/namespaces/inkscape"
   width="32"
   height="32"
   viewBox="0 0 8.4666664 8.4666664"
   version="1.1"
   id="svg8"
   inkscape:version="1.0 (4035a4fb49, 2020-05-01)"
   sodipodi:docname="gear.svg">
  <defs
     id="defs2">
    <filter
       id="filter1296"
       inkscape:label="Drop Shadow"
       style="color-interpolation-filters:sRGB">
      <feFlood
         id="feFlood1286"
         result="flood"
         flood-color="rgb(0,0,0)"
         flood-opacity="0.498039" />
      <feComposite
         id="feComposite1288"
         result="composite1"
         operator="in"
         in2="SourceGraphic"
         in="flood" />
      <feGaussianBlur
         id="feGaussianBlur1290"
         result="blur"
         stdDeviation="0.1"
         in="composite1" />
      <feOffset
         id="feOffset1292"
         result="offset"
         dy="0.1"
         dx="0" />
      <feComposite
         id="feComposite1294"
         result="composite2"
         operator="over"
         in2="offset"
         in="SourceGraphic" />
    </filter>
  </defs>
  <sodipodi:namedview
     units="px"
     id="base"
     pagecolor="#ffffff"
     bordercolor="#666666"
     borderopacity="1.0"
     inkscape:pageopacity="0.0"
     inkscape:pageshadow="2"
     inkscape:zoom="11.313708"
     inkscape:cx="-0.66553723"
     inkscape:cy="21.82827"
     inkscape:document-units="px"
     inkscape:current-layer="g1308"
     inkscape:document-rotation="0"
     showgrid="false"
     inkscape:window-width="1920"
     inkscape:window-height="1017"
     inkscape:window-x="-8"
     inkscape:window-y="-8"
     inkscape:window-maximized="1" />
  <metadata
     id="metadata5">
    <rdf:RDF>
      <cc:Work
         rdf:about="">
        <dc:format>image/svg+xml</dc:format>
        <dc:type
           rdf:resource="http://purl.org/dc/dcmitype/StillImage" />
        <dc:title></dc:title>
      </cc:Work>
    </rdf:RDF>
  </metadata>
  <g
     inkscape:label="Layer 1"
     inkscape:groupmode="layer"
     id="layer1">
    <g
       id="g1308">
      <path
         transform="matrix(1.2143595,0,0,1.2143595,-0.72919451,-0.92338191)"
         id="path874"
         style="fill:none;fill-opacity:0.992157;stroke:#bec6cc;stroke-width:0.374189;stroke-linecap:round;stroke-linejoin:round;stroke-miterlimit:4;stroke-dasharray:none;stroke-opacity:1;filter:url(#filter1296)"
         d="m 3.5442879,1.3413964 c 0,0 -0.0527,0.1806896 -0.09621,0.4555594 -0.0092,0.058184 -0.01753,0.1218871 -0.0252,0.1858503 -0.174494,0.050051 -0.34059,0.1198911 -0.495854,0.2067988 -0.04167,-0.03207 -0.08539,-0.065029 -0.131128,-0.098352 C 2.5840709,1.9369169 2.3952961,1.8293425 2.3952961,1.8293425 L 1.6489272,2.5756898 c 0,0 0.09049,0.1650507 0.2540899,0.3901795 0.03368,0.04635 0.07169,0.095784 0.110354,0.1450581 -0.08615,0.1570392 -0.1547909,0.3250142 -0.2034199,0.5013122 -0.05145,0.0067 -0.104893,0.01423 -0.159984,0.02288 -0.258914,0.04065 -0.468471,0.09807 -0.468471,0.09807 v 1.055506 c 0,0 0.18069,0.05272 0.45556,0.09623 0.05846,0.0093 0.122468,0.01759 0.186738,0.02528 0.05161,0.172566 0.1224309,0.336824 0.2101999,0.490178 -0.03341,0.04331 -0.06783,0.08892 -0.102641,0.136696 -0.1543359,0.211825 -0.2619319,0.400621 -0.2619319,0.400621 l 0.7463689,0.7463479 c 0,0 0.1650288,-0.09049 0.3901578,-0.25409 0.05147,-0.0374 0.106735,-0.07994 0.16137,-0.1230699 0.151466,0.08092 0.312847,0.1456609 0.481859,0.1920029 0.0074,0.05866 0.01601,0.120403 0.02602,0.184117 0.04065,0.258915 0.09807,0.468492 0.09807,0.468492 h 1.055528 c 0,0 0.0527,-0.180711 0.09621,-0.455581 0.01061,-0.06701 0.02023,-0.141097 0.02877,-0.214792 0.163298,-0.04965 0.3190109,-0.1166289 0.4650699,-0.1988049 0.04951,0.03851 0.10258,0.07869 0.158316,0.1193 0.211825,0.1543359 0.400621,0.2619319 0.400621,0.2619319 l 0.746369,-0.7463729 c 0,0 -0.09052,-0.165029 -0.254112,-0.390158 -0.04087,-0.05624 -0.08766,-0.117009 -0.134898,-0.176535 0.07907,-0.146311 0.142992,-0.301979 0.189772,-0.464918 0.06279,-0.0078 0.129356,-0.01699 0.198177,-0.02779 0.258914,-0.04065 0.468492,-0.09807 0.468492,-0.09807 v -1.055509 c 0,0 -0.180689,-0.05272 -0.455559,-0.09623 -0.06674,-0.01056 -0.140519,-0.02013 -0.213926,-0.02864 -0.04819,-0.165187 -0.114011,-0.322827 -0.195383,-0.4707458 0.0372,-0.047922 0.07592,-0.099112 0.115011,-0.1527703 0.154338,-0.2118249 0.261913,-0.4006211 0.261913,-0.4006211 L 5.7572908,1.8088491 c 0,0 -0.165051,0.090494 -0.39018,0.2540899 -0.05118,0.037194 -0.106101,0.079475 -0.160439,0.1223549 C 5.0548399,2.1010549 4.8927199,2.0331528 4.7226029,1.9840193 c -0.0071,-0.055713 -0.0153,-0.11398 -0.02474,-0.1741304 -0.04065,-0.2589145 -0.09807,-0.4684925 -0.09807,-0.4684925 z m 0.526312,2.2016292 h 8.9e-5 c 0.383388,0 0.694178,0.310794 0.694182,0.694182 -4e-6,0.383388 -0.310794,0.694187 -0.694182,0.694182 -0.383382,-3e-6 -0.694179,-0.3108 -0.694182,-0.694182 3e-6,-0.383346 0.310749,-0.694182 0.694095,-0.694182 z" />
    </g>
  </g>
</svg>
